<svg width="435" height="40" fill="none" xmlns="http://www.w3.org/2000/svg"><path d="M349.985 4.286h-50.6v4.52h50.6v-4.52zm-26.88 9.51l-2.632 12.438h-3.183l2.632-12.438h3.183zm13.39 8.032l1.675-4.67.964 4.67h-2.639zm3.553 4.406h2.943l-2.571-12.438h-2.715c-.613 0-1.128.36-1.356.913l-4.776 11.525h3.342l.664-1.857h4.083l.386 1.857zm-8.309-4.06c.014-3.283-4.489-3.465-4.459-4.931.01-.446.43-.92 1.35-1.042.456-.06 1.713-.107 3.139.557l.558-2.64a8.508 8.508 0 00-2.978-.549c-3.146 0-5.359 1.69-5.377 4.111-.021 1.791 1.581 2.79 2.785 3.386 1.241.609 1.657 1 1.651 1.545-.008.835-.99 1.204-1.903 1.218-1.602.025-2.53-.437-3.269-.786l-.578 2.726c.745.345 2.118.645 3.538.66 3.345 0 5.533-1.67 5.543-4.255zm-13.182-8.378L313.4 26.234h-3.364l-2.539-9.926c-.153-.61-.287-.835-.755-1.093-.766-.42-2.029-.813-3.14-1.057l.075-.362h5.416c.69 0 1.31.465 1.468 1.268l1.341 7.198 3.311-8.466h3.344zm31.428 17.397h-50.6v4.522h50.6v-4.522z" fill="#EDEDED"/><path stroke="#EDEDED" stroke-width="1.406" d="M297.277 2.131h54.817v35.737h-54.817z"/><path fill-rule="evenodd" clip-rule="evenodd" d="M396.803 35.714a15.95 15.95 0 009.517-3.126c-3.366-3.165-5.464-7.634-5.464-12.588 0-4.954 2.098-9.423 5.464-12.587a15.944 15.944 0 00-9.517-3.127c-8.779 0-15.895 7.035-15.895 15.714s7.116 15.714 15.895 15.714zm21.621-31.428a15.941 15.941 0 00-9.516 3.127c3.365 3.164 5.463 7.633 5.463 12.587s-2.098 9.423-5.463 12.588a15.943 15.943 0 009.516 3.126c8.779 0 15.895-7.035 15.895-15.714s-7.116-15.714-15.895-15.714zM412.698 20c0-4.551-1.957-8.65-5.084-11.52-3.128 2.87-5.085 6.969-5.085 11.52 0 4.551 1.957 8.65 5.085 11.52 3.127-2.87 5.084-6.969 5.084-11.52z" fill="#EDEDED"/><rect y="1.429" width="56.222" height="37.143" rx="2.811" fill="#EDEDED"/><path d="M49.195 20.966v-1.953H46.09v-3.299h-2.224v3.299h-3.104v1.953h3.104v3.32h2.224v-3.32h3.105zM16.92 10c1.103 0 2.12.127 3.05.38.93.235 1.734.597 2.412 1.085a4.932 4.932 0 011.57 1.737c.387.688.58 1.466.58 2.334a6.593 6.593 0 01-.697 2.958c-.445.94-1.104 1.854-1.976 2.74-.852.887-1.898 1.756-3.138 2.606a49.76 49.76 0 01-4.185 2.497H24.62V30H8.434v-3.663a630.91 630.91 0 014.155-2.796 47.399 47.399 0 003.604-2.686c1.065-.887 1.918-1.746 2.557-2.578.64-.832.959-1.655.959-2.47 0-.85-.29-1.474-.872-1.872-.581-.416-1.269-.624-2.063-.624a3.95 3.95 0 00-1.279.217 2.841 2.841 0 00-1.104.651c-.31.308-.562.733-.756 1.276-.193.524-.27 1.176-.232 1.954H8.666c-.039-1.158.136-2.199.523-3.121.407-.923.979-1.7 1.715-2.334.736-.633 1.617-1.113 2.644-1.438 1.027-.344 2.15-.516 3.371-.516zm14.859 20V16.784h-4.795v-3.283c.872-.018 1.627-.09 2.267-.217.659-.145 1.22-.344 1.685-.597.465-.254.853-.57 1.163-.95a6.36 6.36 0 00.813-1.411h3.633V30h-4.766z" fill="#00003D"/><path fill-rule="evenodd" clip-rule="evenodd" d="M103.275 0c.035.35.051.703.046 1.056a7.58 7.58 0 01-2.138 4.813c-.578.609-1.217 1.143-2.005 1.457-.673.27-1.377.323-2.087.375l-.009.001h-.002a.024.024 0 01-.007-.002.054.054 0 01-.006-.003l-.007-.005-.012-.008C97.15 3.526 99.237.837 103.275 0zm6.266 10.31l-.254.233c-.238.218-.476.436-.711.659-1.123 1.068-1.967 2.31-2.265 3.858a7.252 7.252 0 001.321 5.876c.648.882 1.42 1.615 2.448 2.038.073.03.146.058.225.087l.165.063-.071.194-.052.146-.01.028-.011.032c-.081.229-.161.454-.252.676-.838 2.038-1.926 3.924-3.413 5.56a8.196 8.196 0 01-.907.84c-1.082.882-2.299 1.222-3.672.814-.684-.2-1.36-.426-2.042-.637a7.838 7.838 0 00-2.15-.407c-.917-.022-1.758.254-2.61.566a17.22 17.22 0 01-1.953.643c-1.046.251-1.992-.072-2.858-.662a8.518 8.518 0 01-2.164-2.235 22.912 22.912 0 01-3.347-7.025 16.376 16.376 0 01-.448-6.875c.306-2.048 1.066-3.895 2.497-5.422 1.488-1.582 3.32-2.233 5.465-2.018 1.068.106 2.088.417 3.11.716.19.056.381.105.573.152l.149.037.155.037a53.03 53.03 0 01.416.103 3.388 3.388 0 001.822-.091c.442-.13.881-.27 1.319-.408h.003c.396-.126.792-.252 1.188-.37a7.86 7.86 0 013.803-.228c1.666.324 2.983 1.223 4.086 2.484l.405.478a.438.438 0 01.04.059zm15.468-5.88a39.42 39.42 0 00-6.571.514v26.324h3.423V20.597c.787.197 1.731.236 2.754.236 3.344 0 6.294-.99 8.107-2.929 1.338-1.383 2.046-3.281 2.046-5.691 0-2.368-.865-4.306-2.32-5.57-1.577-1.423-4.057-2.214-7.439-2.214zm-.316 13.629c-1.14 0-2.085-.073-2.832-.272V7.424c.59-.154 1.731-.272 3.226-.272 3.777 0 6.254 1.698 6.254 5.216 0 3.676-2.518 5.691-6.648 5.691zm22.42 13.206l-.27-2.411h-.118c-1.063 1.502-3.111 2.846-5.824 2.846-3.854 0-5.822-2.727-5.822-5.494 0-4.62 4.093-7.154 11.448-7.114v-.396c0-1.58-.432-4.426-4.327-4.426-1.771 0-3.619.554-4.957 1.424l-.787-2.292c1.574-1.029 3.856-1.7 6.255-1.7 5.823 0 7.239 3.992 7.239 7.824v7.15c0 1.66.079 3.28.314 4.585l-3.151.004zm-.511-9.762c-3.776-.079-8.065.593-8.065 4.307 0 2.253 1.495 3.32 3.266 3.32 2.478 0 4.058-1.58 4.599-3.2.122-.357.188-.73.196-1.107l.004-3.32zm12.112 1.938l-4.169-11.303h-3.776l7.035 17.62c.158.435.237.711.237.91 0 .198-.113.474-.271.83a10.548 10.548 0 01-2.91 3.873 9.168 9.168 0 01-3.03 1.705l.866 2.924c.867-.158 2.557-.75 4.248-2.253 2.361-2.057 4.052-5.414 6.531-11.975l5.193-13.634h-3.659l-3.782 11.224a67.22 67.22 0 00-.83 2.69c-.135.462-.264.9-.387 1.302h-.079a69.576 69.576 0 00-1.217-3.913zm42.862-13.978a7.236 7.236 0 015.077 1.96l3.776-3.731a12.804 12.804 0 00-8.853-3.405 13.35 13.35 0 00-6.943 1.944 13.14 13.14 0 00-4.878 5.257v.002a12.931 12.931 0 000 11.738v.004a13.139 13.139 0 004.878 5.257 13.35 13.35 0 006.943 1.945v-.005c3.571 0 6.576-1.158 8.766-3.156h.02c2.497-2.276 3.936-5.639 3.936-9.617h-.016a15.482 15.482 0 00-.225-2.667h-12.481v5.043h7.159a6.009 6.009 0 01-.91 2.254 6.076 6.076 0 01-1.734 1.717v.016l-.02-.015c-1.187.79-2.715 1.25-4.495 1.25-3.451 0-6.379-2.297-7.418-5.393h-.009a7.738 7.738 0 010-5.004v-.002c1.048-3.098 3.976-5.394 7.417-5.394l.01.002zm24.661 7.383V8.903h4.945a4.064 4.064 0 012.241.65 4.001 4.001 0 011.5 1.771 3.955 3.955 0 01-3.741 5.522h-4.945zm0 12.01v-9.207h4.889c2.016.002 3.709-.645 5.08-1.938a6.555 6.555 0 001.57-2.187 6.493 6.493 0 000-5.25 6.554 6.554 0 00-1.57-2.187 7.113 7.113 0 00-2.341-1.486 7.176 7.176 0 00-2.739-.483h-7.847v22.737h2.958zm15.346-3.696a2.315 2.315 0 01-.257-1.072c0-.845.403-1.553 1.207-2.125.805-.572 1.807-.858 3.005-.858 1.652-.001 2.938.359 3.86 1.08 0 .607-.13 1.207-.383 1.76a4.275 4.275 0 01-1.08 1.448 4.75 4.75 0 01-3.329 1.364 3.638 3.638 0 01-2.297-.76 2.343 2.343 0 01-.726-.837zm8.734-10.643c-1.259-1.154-2.982-1.731-5.17-1.731-2.808 0-4.928 1.015-6.361 3.045l2.608 1.62c.966-1.376 2.274-2.065 3.922-2.065a4.217 4.217 0 012.861 1.063 3.31 3.31 0 011.223 2.59v.666c-1.137-.634-2.585-.951-4.342-.951-2.065-.002-3.714.474-4.945 1.429-1.232.954-1.848 2.234-1.848 3.84a4.83 4.83 0 001.753 3.814c1.167 1.018 2.623 1.525 4.358 1.525 2.037 0 3.666-.889 4.887-2.667h.13v2.16h2.819v-9.59c-.004-2.01-.636-3.594-1.895-4.748zm18.146-1.229l-9.874 22.426h-3.055l3.666-7.845-6.496-14.581h3.217l4.695 11.182h.063l4.567-11.182h3.217z" fill="#fff"/></svg>