<svg width="189" height="56" fill="none" xmlns="http://www.w3.org/2000/svg"><rect x="1.374" y=".703" width="186.594" height="54.436" rx="6.325" stroke="#EDEDED" stroke-width="1.406"/><path d="M181.708 55.139H7.634c-3.44 0-6.26-2.825-6.26-6.278V6.981c0-3.453 2.82-6.278 6.26-6.278h174.074c3.44 0 6.26 2.825 6.26 6.277v41.881c0 3.453-2.82 6.278-6.26 6.278z" stroke="#EDEDED" stroke-width="1.406"/><path d="M66.707 14.295c0 1.173-.348 2.108-1.044 2.792-.78.824-1.81 1.243-3.064 1.243-1.212 0-2.228-.419-3.078-1.256-.85-.838-1.267-1.885-1.267-3.114 0-1.242.418-2.275 1.267-3.113.85-.838 1.866-1.256 3.078-1.256.599 0 1.17.111 1.713.349.543.237.975.544 1.309.935l-.738.74c-.557-.656-1.31-.991-2.284-.991-.877 0-1.643.307-2.284.935-.64.614-.96 1.424-.96 2.415 0 .992.32 1.801.96 2.415.64.615 1.407.936 2.284.936.933 0 1.713-.307 2.34-.936.403-.404.64-.977.696-1.703h-3.036v-1.019h4.052c.028.223.056.433.056.628zm6.42-3.489h-3.801v2.653h3.425v1.005h-3.425v2.652h3.801v1.034h-4.874V9.773h4.874v1.033zm4.526 7.344h-1.072v-7.344h-2.34V9.773h5.738v1.033h-2.34v7.344h.014zm6.49 0V9.773h1.072v8.377h-1.072zm5.834 0h-1.072v-7.344h-2.34V9.773h5.738v1.033h-2.34v7.344h.014zm13.203-1.09c-.822.851-1.839 1.27-3.064 1.27-1.226 0-2.242-.419-3.064-1.27-.822-.852-1.225-1.885-1.225-3.1 0-1.214.404-2.261 1.225-3.099.822-.851 1.838-1.27 3.064-1.27 1.211 0 2.228.419 3.064 1.27.821.852 1.239 1.885 1.239 3.1-.014 1.228-.418 2.26-1.239 3.099zm-5.334-.698c.613.628 1.379.935 2.27.935s1.657-.307 2.27-.935c.613-.629.933-1.424.933-2.402 0-.977-.307-1.773-.933-2.4a3.067 3.067 0 00-2.27-.95c-.891 0-1.657.307-2.27.935-.613.642-.933 1.438-.933 2.415 0 .978.32 1.773.933 2.402zm8.076 1.788V9.773h1.309l4.067 6.52h.042l-.042-1.62v-4.9h1.072v8.377h-1.114l-4.247-6.827h-.042l.042 1.62v5.207h-1.087z" fill="#EDEDED" stroke="#EDEDED" stroke-width=".281" stroke-miterlimit="10"/><mask id="path-10-inside-1_305_630" fill="#fff"><path d="M95.56 30.363c-3.273 0-5.946 2.5-5.946 5.933 0 3.42 2.673 5.934 5.946 5.934 3.273 0 5.946-2.513 5.946-5.934 0-3.434-2.673-5.933-5.946-5.933zm0 9.535c-1.796 0-3.342-1.48-3.342-3.602 0-2.136 1.546-3.601 3.342-3.601s3.342 1.465 3.342 3.601c0 2.122-1.56 3.602-3.342 3.602zm-12.979-9.535c-3.273 0-5.946 2.5-5.946 5.933 0 3.42 2.673 5.934 5.946 5.934 3.273 0 5.947-2.513 5.947-5.934 0-3.434-2.674-5.933-5.947-5.933zm0 9.535c-1.796 0-3.342-1.48-3.342-3.602 0-2.136 1.546-3.601 3.342-3.601s3.342 1.465 3.342 3.601c0 2.122-1.546 3.602-3.342 3.602zm-15.43-7.706v2.513h6.016c-.18 1.41-.654 2.457-1.365 3.169-.877.88-2.242 1.843-4.637 1.843-3.704 0-6.6-2.988-6.6-6.701 0-3.714 2.896-6.701 6.6-6.701 1.991 0 3.454.781 4.526 1.8l1.769-1.772c-1.504-1.438-3.496-2.541-6.309-2.541-5.069 0-9.33 4.132-9.33 9.228 0 5.081 4.261 9.227 9.33 9.227 2.744 0 4.805-.893 6.42-2.582 1.657-1.661 2.172-4.007 2.172-5.891 0-.587-.041-1.131-.139-1.578h-8.453v-.014zm63.099 1.955c-.488-1.327-1.992-3.784-5.069-3.784-3.05 0-5.585 2.401-5.585 5.933 0 3.323 2.507 5.934 5.877 5.934 2.716 0 4.289-1.662 4.93-2.625l-2.02-1.354c-.668.991-1.587 1.647-2.91 1.647-1.323 0-2.27-.614-2.869-1.8l7.924-3.281-.278-.67zm-8.077 1.982c-.07-2.29 1.768-3.462 3.091-3.462 1.031 0 1.908.516 2.2 1.256l-5.291 2.206zm-6.434 5.752h2.604V24.43h-2.604v17.45zm-4.262-10.192h-.097c-.585-.698-1.699-1.326-3.119-1.326-2.967 0-5.682 2.61-5.682 5.961 0 3.323 2.715 5.92 5.682 5.92 1.406 0 2.534-.629 3.119-1.355h.083v.852c0 2.276-1.211 3.49-3.161 3.49-1.587 0-2.576-1.145-2.98-2.108l-2.27.95c.655 1.577 2.382 3.503 5.25 3.503 3.05 0 5.626-1.8 5.626-6.184V30.726h-2.465v.963h.014zm-2.994 8.21c-1.796 0-3.3-1.508-3.3-3.575 0-2.094 1.504-3.615 3.3-3.615 1.769 0 3.162 1.535 3.162 3.615.013 2.067-1.379 3.574-3.162 3.574zm33.966-15.469h-6.225v17.45h2.604v-6.617h3.635c2.882 0 5.709-2.094 5.709-5.416 0-3.323-2.855-5.417-5.723-5.417zm.055 8.404h-3.69v-5.989h3.69c1.95 0 3.05 1.62 3.05 2.988 0 1.368-1.1 3.001-3.05 3.001zm16.071-2.499c-1.88 0-3.83.838-4.637 2.667l2.311.963c.488-.963 1.407-1.284 2.368-1.284 1.35 0 2.715.81 2.729 2.247v.182c-.473-.265-1.476-.67-2.715-.67-2.493 0-5.014 1.368-5.014 3.923 0 2.331 2.033 3.839 4.317 3.839 1.741 0 2.716-.782 3.315-1.703h.083v1.354h2.507v-6.687c.014-3.1-2.298-4.83-5.264-4.83zm-.32 9.563c-.85 0-2.034-.433-2.034-1.48 0-1.34 1.477-1.856 2.758-1.856 1.142 0 1.685.251 2.367.586-.195 1.605-1.587 2.75-3.091 2.75zm14.733-9.186l-2.98 7.567h-.084l-3.091-7.567h-2.799l4.637 10.582-2.646 5.878h2.716l7.144-16.46h-2.897zm-23.395 11.169h2.604V24.43h-2.604v17.45z"/></mask><path d="M95.56 30.363c-3.273 0-5.946 2.5-5.946 5.933 0 3.42 2.673 5.934 5.946 5.934 3.273 0 5.946-2.513 5.946-5.934 0-3.434-2.673-5.933-5.946-5.933zm0 9.535c-1.796 0-3.342-1.48-3.342-3.602 0-2.136 1.546-3.601 3.342-3.601s3.342 1.465 3.342 3.601c0 2.122-1.56 3.602-3.342 3.602zm-12.979-9.535c-3.273 0-5.946 2.5-5.946 5.933 0 3.42 2.673 5.934 5.946 5.934 3.273 0 5.947-2.513 5.947-5.934 0-3.434-2.674-5.933-5.947-5.933zm0 9.535c-1.796 0-3.342-1.48-3.342-3.602 0-2.136 1.546-3.601 3.342-3.601s3.342 1.465 3.342 3.601c0 2.122-1.546 3.602-3.342 3.602zm-15.43-7.706v2.513h6.016c-.18 1.41-.654 2.457-1.365 3.169-.877.88-2.242 1.843-4.637 1.843-3.704 0-6.6-2.988-6.6-6.701 0-3.714 2.896-6.701 6.6-6.701 1.991 0 3.454.781 4.526 1.8l1.769-1.772c-1.504-1.438-3.496-2.541-6.309-2.541-5.069 0-9.33 4.132-9.33 9.228 0 5.081 4.261 9.227 9.33 9.227 2.744 0 4.805-.893 6.42-2.582 1.657-1.661 2.172-4.007 2.172-5.891 0-.587-.041-1.131-.139-1.578h-8.453v-.014zm63.099 1.955c-.488-1.327-1.992-3.784-5.069-3.784-3.05 0-5.585 2.401-5.585 5.933 0 3.323 2.507 5.934 5.877 5.934 2.716 0 4.289-1.662 4.93-2.625l-2.02-1.354c-.668.991-1.587 1.647-2.91 1.647-1.323 0-2.27-.614-2.869-1.8l7.924-3.281-.278-.67zm-8.077 1.982c-.07-2.29 1.768-3.462 3.091-3.462 1.031 0 1.908.516 2.2 1.256l-5.291 2.206zm-6.434 5.752h2.604V24.43h-2.604v17.45zm-4.262-10.192h-.097c-.585-.698-1.699-1.326-3.119-1.326-2.967 0-5.682 2.61-5.682 5.961 0 3.323 2.715 5.92 5.682 5.92 1.406 0 2.534-.629 3.119-1.355h.083v.852c0 2.276-1.211 3.49-3.161 3.49-1.587 0-2.576-1.145-2.98-2.108l-2.27.95c.655 1.577 2.382 3.503 5.25 3.503 3.05 0 5.626-1.8 5.626-6.184V30.726h-2.465v.963h.014zm-2.994 8.21c-1.796 0-3.3-1.508-3.3-3.575 0-2.094 1.504-3.615 3.3-3.615 1.769 0 3.162 1.535 3.162 3.615.013 2.067-1.379 3.574-3.162 3.574zm33.966-15.469h-6.225v17.45h2.604v-6.617h3.635c2.882 0 5.709-2.094 5.709-5.416 0-3.323-2.855-5.417-5.723-5.417zm.055 8.404h-3.69v-5.989h3.69c1.95 0 3.05 1.62 3.05 2.988 0 1.368-1.1 3.001-3.05 3.001zm16.071-2.499c-1.88 0-3.83.838-4.637 2.667l2.311.963c.488-.963 1.407-1.284 2.368-1.284 1.35 0 2.715.81 2.729 2.247v.182c-.473-.265-1.476-.67-2.715-.67-2.493 0-5.014 1.368-5.014 3.923 0 2.331 2.033 3.839 4.317 3.839 1.741 0 2.716-.782 3.315-1.703h.083v1.354h2.507v-6.687c.014-3.1-2.298-4.83-5.264-4.83zm-.32 9.563c-.85 0-2.034-.433-2.034-1.48 0-1.34 1.477-1.856 2.758-1.856 1.142 0 1.685.251 2.367.586-.195 1.605-1.587 2.75-3.091 2.75zm14.733-9.186l-2.98 7.567h-.084l-3.091-7.567h-2.799l4.637 10.582-2.646 5.878h2.716l7.144-16.46h-2.897zm-23.395 11.169h2.604V24.43h-2.604v17.45z" fill="#EDEDED" stroke="#EDEDED" stroke-width="2.811" mask="url(#path-10-inside-1_305_630)"/><path d="M15.093 43.596l.588-.384a.09.09 0 00.065.04c.012.001.025 0 .038-.005m-.691.35l.69-.35m-.69.35c.064.098.15.18.25.242l-.25-.243zm0 0l.59-.383a2.3 2.3 0 01-.383-1.275V13.257c.003-.253.046-.505.129-.744h0l.003-.007a.087.087 0 01.06-.057.083.083 0 01.08.021h0l15.651 15.185a.089.089 0 01.027.061m-16.157 15.88l16.157-15.88M15.784 43.248a.087.087 0 00.032-.02l15.406-15.444s0 0 0 0a.096.096 0 00.028-.067M15.784 43.248l15.466-15.53m2.089-2.168l-.003-.003-14.659-14.222s0 0 0 0a.092.092 0 01-.012-.116.087.087 0 01.103-.03l18.645 10.237h.001a.089.089 0 01.045.066.093.093 0 01-.025.077s0 0 0 0l-3.979 3.988-.002.002a.081.081 0 01-.114.001zm11.567-.022h0a2.318 2.318 0 011.221 2.068 2.32 2.32 0 01-1.22 2.067s0 0 0 0L40.284 32.2s0 0 0 0a.088.088 0 01-.104-.014s0 0 0 0l-4.579-4.443s0 0 0 0a.087.087 0 01-.026-.063.09.09 0 01.006-.034l-.645-.263.645.263a.108.108 0 01.02-.029s0 0 0 0l4.592-4.604s0 0 0 0a.089.089 0 01.105-.015l4.607 2.53zM33.49 29.853s0 0 0 0l3.915 3.797.001.002c.01.009.017.02.022.033a.087.087 0 01-.04.105h0l-17.032 9.35-.009.004-.008.005a.08.08 0 01-.056.01l-.14.688.14-.689a.082.082 0 01-.05-.031.086.086 0 01.01-.113l.006-.006.006-.006L33.37 29.854a.084.084 0 01.118-.001z" fill="#EDEDED" stroke="#EDEDED" stroke-width="1.406"/></svg>