<svg width="474" height="154" fill="none" xmlns="http://www.w3.org/2000/svg"><path d="M474 0H0v84.392h474V0z" fill="#FF267E"/><path d="M153.735 40.543h-28.21v-8.189h34.126V21.049h-50.483v42.104h16.357V51.848h28.21V40.543zm89.661 8.547l-14.968-28.04h-18.779l24.316 42.104h18.631L276.89 21.05h-18.505l-14.989 28.04zm85.932-7.326a9.912 9.912 0 006.316-9.052c0-6.905-5.832-11.663-17.305-11.663h-37.031v42.104h37.894c12.316 0 17.789-4.863 17.789-11.915-.084-3.937-2.463-7.495-7.663-9.474zm-32.083-10.526h18.252a3.2 3.2 0 01.634-.063 3.236 3.236 0 013.221 3.221 3.236 3.236 0 01-3.221 3.221 3.2 3.2 0 01-.634-.063h-18.252v-6.316zm19.578 21.895h-19.578v-6.316h19.578c.209-.042.421-.063.634-.063a3.236 3.236 0 013.221 3.22 3.236 3.236 0 01-3.221 3.222c-.213 0-.425-.021-.634-.063zm44.207-6.463h28.167v-9.137H361.03v-5.179h31.136V21.049h-47.494v42.104h48.23V51.848H361.03V46.67zm38.631-25.621v11.305h18.358v30.8h16.547v-30.8h18.336V21.049h-53.241zm-221.004 0l-24.294 42.104h17.389l3.284-6.21h25.979l3.284 6.21h18.105L198.088 21.05h-19.431zm2.106 24.968l7.178-13.558 7.179 13.558h-14.357zM21.759 37.552l14.504 25.6h18.632l-14.526-25.6h-18.61zm47.641 0l-14.505 25.6h18.61l14.505-25.6H69.4zM54.894 12.016L40.368 37.552H69.4L54.894 12.016z" fill="#005"/><path d="M.703 153.149V84.222h206.979v68.927H.702z" fill="#005" stroke="#FF267E" stroke-width="1.406"/><path d="M46.47 123.733c-.194 1.421-.581 2.688-1.24 3.878-.658 1.19-1.549 2.188-2.594 3.032-1.046.883-2.286 1.536-3.68 1.996-1.433.499-2.982.73-4.647.73-2.092 0-3.95-.346-5.577-1.037-1.627-.652-2.983-1.612-4.106-2.917-1.162-1.267-1.975-2.764-2.556-4.568-.581-1.805-.89-3.801-.89-6.027 0-2.188.309-4.184.929-5.95.62-1.766 1.51-3.263 2.672-4.492 1.123-1.228 2.518-2.188 4.183-2.84 1.627-.653 3.447-.998 5.5-.998 1.665 0 3.175.23 4.53.652a12.39 12.39 0 013.603 1.92 10.539 10.539 0 012.556 2.994c.658 1.19 1.084 2.495 1.317 3.954h-5.267c-.272-.96-.62-1.805-1.046-2.457a6.683 6.683 0 00-1.55-1.574 6.3 6.3 0 00-1.936-.883 10.913 10.913 0 00-2.246-.23c-1.046 0-2.053.192-2.944.614-.93.461-1.743 1.075-2.4 1.919-.66.845-1.202 1.881-1.589 3.11-.387 1.228-.58 2.648-.58 4.261 0 1.65.193 3.148.58 4.376.387 1.267.93 2.342 1.588 3.186.659.883 1.433 1.536 2.324 1.958a6.5 6.5 0 002.827.653c.813 0 1.627-.077 2.363-.308a6.603 6.603 0 002.052-.921c.581-.384 1.123-.96 1.55-1.612.425-.653.774-1.459 1.007-2.419h5.267zm15.336-18.702h5.577l10.496 27.832h-6.003L69.9 127.22H58.98l-1.976 5.643H51.35l10.457-27.832zm-1.24 17.697h7.746l-3.873-10.979-3.872 10.979zm31.177-2.066c-1.123-.23-2.207-.537-3.214-.959-1.046-.423-1.937-.96-2.673-1.613-.774-.652-1.394-1.42-1.82-2.341-.465-.883-.697-1.958-.697-3.148 0-1.42.349-2.61 1.046-3.647a8.173 8.173 0 012.633-2.495c1.046-.653 2.247-1.113 3.602-1.459a17.268 17.268 0 013.912-.46c1.433 0 2.827.191 4.144.614 1.278.422 2.44.998 3.447 1.727a9.278 9.278 0 012.44 2.764 8.504 8.504 0 011.007 3.609h-5.345c-.116-.807-.349-1.498-.736-2.073a5.132 5.132 0 00-1.394-1.344 6.916 6.916 0 00-1.82-.729 11.49 11.49 0 00-1.976-.192c-.658 0-1.278.077-1.936.192a5.791 5.791 0 00-1.743.576c-.503.307-.93.652-1.24 1.074-.348.461-.503.998-.503 1.613 0 .959.388 1.727 1.123 2.303.736.576 1.666.96 2.789 1.152l3.68.652c1.123.192 2.284.499 3.446.845a12.07 12.07 0 013.099 1.458 8.294 8.294 0 012.207 2.419c.581.998.852 2.226.852 3.647 0 1.42-.31 2.687-.968 3.723-.658 1.075-1.549 1.958-2.595 2.687-1.084.73-2.324 1.229-3.64 1.574-1.356.384-2.75.538-4.183.538-1.743 0-3.292-.231-4.687-.691a10.473 10.473 0 01-3.679-1.92c-1.046-.806-1.859-1.804-2.479-3.032-.62-1.19-1.007-2.534-1.123-4.031h5.345c.155 1.036.426 1.881.852 2.534.426.691.93 1.228 1.55 1.65.58.423 1.277.691 2.052.845.736.192 1.549.269 2.362.269.62 0 1.279-.077 1.937-.192.658-.116 1.24-.346 1.82-.653a3.356 3.356 0 001.356-1.19c.348-.499.503-1.113.503-1.843 0-.575-.116-1.113-.387-1.535a3.605 3.605 0 00-1.084-1.075 7.936 7.936 0 00-1.627-.729 16.65 16.65 0 00-2.092-.461l-3.563-.653zm27.154-15.631h-5.538v27.832h5.538v-27.832zm25.362 27.832l-11.231-21.229v21.229h-5.229v-27.832h7.204l11.231 21.229v-21.229h5.229v27.832h-7.204zm20.723-13.928c0 1.651.232 3.071.658 4.338.426 1.267.968 2.303 1.704 3.148.736.844 1.588 1.497 2.556 1.919a7.731 7.731 0 003.099.653 7.73 7.73 0 003.098-.653c.968-.422 1.82-1.075 2.556-1.919.736-.845 1.317-1.881 1.743-3.148.387-1.267.62-2.687.62-4.338 0-1.651-.233-3.071-.62-4.338-.426-1.228-1.007-2.265-1.743-3.109-.736-.845-1.588-1.497-2.556-1.92a7.73 7.73 0 00-3.098-.652 7.73 7.73 0 00-3.099.652c-.968.423-1.82 1.075-2.556 1.92-.736.844-1.278 1.881-1.704 3.109-.426 1.267-.658 2.687-.658 4.338zm21.766 0c0 2.15-.31 4.107-.969 5.873-.658 1.804-1.549 3.302-2.749 4.568-1.24 1.306-2.673 2.265-4.338 2.956-1.704.691-3.602 1.037-5.693 1.037-2.092 0-3.99-.346-5.655-1.037-1.704-.691-3.137-1.65-4.338-2.956-1.239-1.266-2.13-2.764-2.788-4.568-.659-1.766-.968-3.723-.968-5.873 0-2.15.309-4.108.968-5.912.658-1.766 1.549-3.263 2.788-4.53 1.201-1.266 2.634-2.226 4.338-2.917 1.665-.691 3.563-1.036 5.655-1.036 2.091 0 3.989.345 5.693 1.036a12.886 12.886 0 014.338 2.917c1.2 1.267 2.091 2.764 2.749 4.53.659 1.804.969 3.762.969 5.912z" fill="#FF267E"/></svg>