<svg width="1871" height="115" fill="none" xmlns="http://www.w3.org/2000/svg"><path d="M18.242 16.461h-2.376L9.44 65.421l-6.588-48.96H.476l7.83 55.757L6.47 85.697c-1.026 7.372-2.268 8.64-5.076 8.64v4.147c3.456 0 5.67-1.037 7.02-10.944l9.828-71.079zm16.79 82.023V16.46h-2.16v46.541c-1.782.691-3.456 1.037-5.184 1.037-2.484 0-4.806-1.728-4.806-12.787v-34.79h-2.16v35.25c0 13.249 3.186 16.474 6.696 16.474 1.782 0 3.51-.345 5.454-1.152v31.45h2.16zm20.799 0l-8.1-82.023h-1.944l-8.262 82.023h2.376L42.17 73.83h8.964l2.322 24.653h2.376zm-5.076-28.8h-8.154l4.05-43.776 4.104 43.776zm21.116 11.059h-2.16c0 4.493-.432 9.1-1.728 11.866-.756 1.612-1.89 2.65-3.402 2.65-1.566 0-2.808-1.038-3.618-2.88-1.728-4.033-2.052-7.604-2.052-34.906 0-27.303.324-30.874 2.052-34.906.81-1.843 2.052-2.88 3.618-2.88 1.512 0 2.646 1.037 3.402 2.65 1.296 2.764 1.728 7.372 1.728 11.865h2.16c0-5.875-.648-11.174-2.214-14.63-1.188-2.535-2.808-4.032-5.076-4.032-2.106 0-3.942 1.382-5.13 4.032-2.268 4.953-2.7 9.561-2.7 37.9 0 28.34.432 32.948 2.7 37.901 1.188 2.65 3.024 4.032 5.13 4.032 2.052 0 3.618-1.267 4.752-3.456 1.782-3.34 2.538-8.985 2.538-15.206zM88.29 20.609V16.46H73.28v4.148h6.426v77.875h2.16V20.609h6.426zm18.051 55.756c0-19.93-3.996-22.118-7.776-22.118h-4.644V16.461h-2.16v82.023h6.804c3.672 0 7.776-2.42 7.776-22.119zm-2.16 0c0 15.783-2.646 17.972-5.778 17.972h-4.482V58.394h4.482c3.132 0 5.778 2.189 5.778 17.971zm30.877-.115c0-6.22-.27-12.326-2.484-17.05-.81-1.612-1.782-2.764-2.862-3.225.81-.46 1.728-1.613 2.538-3.34 2.052-4.378 2.376-9.447 2.376-15.322 0-8.64-.486-12.557-2.052-16.244-1.458-3.456-3.186-4.608-6.156-4.608h-5.94v82.023h5.886c3.024 0 4.86-1.267 6.372-4.608 1.566-3.456 2.322-7.258 2.322-17.626zm-2.16 0c0 14.4-2.322 18.087-6.156 18.087h-4.104V58.164h4.104c3.834 0 6.156 5.069 6.156 18.086zm-.432-38.937c0 11.98-2.16 16.704-5.724 16.704h-4.104V20.609h4.104c3.564 0 5.724 3.456 5.724 16.704zm31.627 61.171l-8.1-82.023h-1.944l-8.262 82.023h2.376l2.268-24.653h8.964l2.322 24.653h2.376zm-5.076-28.8h-8.154l4.05-43.776 4.104 43.776zm20.935 7.833c0-9.792-.648-12.902-1.836-16.012a12.93 12.93 0 00-2.484-4.148c1.026-1.152 1.836-2.65 2.43-4.262 1.08-3.226 1.674-6.106 1.674-15.552 0-7.027-.054-13.133-2.268-17.971-1.188-2.65-3.024-4.032-5.13-4.032-2.268 0-3.888 1.613-5.076 4.147-1.566 3.456-2.214 8.64-2.214 14.515h2.16c0-4.493.432-9.1 1.728-11.865.756-1.613 1.89-2.65 3.402-2.65 1.566 0 2.808 1.037 3.618 2.88 1.62 3.802 1.62 8.064 1.62 14.976 0 9.216-.54 12.096-1.728 14.86-.864 2.074-1.998 2.996-3.348 2.996h-3.24v4.147h3.24c1.35 0 2.43.807 3.402 2.995 1.296 2.996 1.89 5.99 1.89 14.976 0 6.797-.324 11.29-1.782 14.746-.81 1.958-2.106 2.995-3.672 2.995-1.512 0-2.646-1.037-3.402-2.65-1.296-2.764-1.728-7.372-1.728-11.865h-2.16c0 6.22.756 11.866 2.538 15.206 1.134 2.19 2.7 3.456 4.752 3.456 2.106 0 3.942-1.382 5.13-4.032 2.106-4.838 2.484-9.676 2.484-17.856zm20.083 20.967l-8.1-82.023h-1.944l-8.262 82.023h2.376l2.268-24.653h8.964l2.322 24.653h2.376zm-5.076-28.8h-8.154l4.05-43.776 4.104 43.776zm22.122-31.104c0-19.93-3.996-22.119-7.776-22.119h-6.804v82.023h2.16V60.698h4.644c3.672 0 7.776-2.419 7.776-22.118zm-2.16 0c0 15.782-2.646 17.971-5.778 17.971h-4.482V20.609h4.482c3.132 0 5.778 2.188 5.778 17.97zm18.891-17.971V16.46H218.8v4.148h6.426v77.875h2.16V20.609h6.426zm18.051 77.875V16.46h-2.16v38.247h-10.26V16.46h-2.16v82.023h2.16V58.855h10.26v39.629h2.16zm21.495 0V16.46h-2.16l-11.016 68.89V16.46h-2.16v82.023h2.16l11.016-68.89v68.89h2.16zm20.02 0l-7.128-42.855 6.534-39.168h-2.376l-5.346 34.33-5.292-34.33h-2.376l6.372 39.168-6.966 42.855h2.376l5.886-37.67 5.94 37.67h2.376zm14.784 0V16.46h-2.16v82.023h2.16zm18.284-77.875V16.46h-12.15v82.023h2.16V20.609h9.99zm18.318 17.971c0-19.93-3.996-22.119-7.776-22.119h-6.804v82.023h2.16V60.698h4.644c3.672 0 7.776-2.419 7.776-22.118zm-2.16 0c0 15.782-2.646 17.971-5.778 17.971h-4.482V20.609h4.482c3.132 0 5.778 2.188 5.778 17.97zm19.051 59.904l-8.1-82.023h-1.944l-8.262 82.023h2.376l2.268-24.653h8.964l2.322 24.653h2.376zm-5.076-28.8h-8.154l4.05-43.776 4.104 43.776z" fill="#000"/><path d="M378 98.484l-7.128-42.855 6.534-39.168h-2.376l-5.346 34.33-5.292-34.33h-2.376l6.372 39.168-6.966 42.855h2.376l5.886-37.67 5.94 37.67H378zm34.116 0V16.46h-2.376l-8.37 50.112L393 16.461h-2.376v82.023h2.16V28.788l7.56 45.158h1.944l7.668-46.771v71.309h2.16zm21.059-41.011c0-28.34-.432-32.948-2.7-37.901-1.188-2.65-3.024-4.032-5.13-4.032s-3.942 1.382-5.13 4.032c-2.268 4.953-2.7 9.561-2.7 37.9 0 28.34.432 32.948 2.7 37.901 1.188 2.65 3.024 4.032 5.13 4.032s3.942-1.382 5.13-4.032c2.268-4.953 2.7-9.561 2.7-37.9zm-2.16 0c0 27.302-.324 30.873-2.052 34.905-.81 1.843-2.052 2.88-3.618 2.88-1.566 0-2.808-1.037-3.618-2.88-1.728-4.032-2.052-7.603-2.052-34.905 0-27.303.324-30.874 2.052-34.906.81-1.843 2.052-2.88 3.618-2.88 1.566 0 2.808 1.037 3.618 2.88 1.728 4.032 2.052 7.603 2.052 34.906zm34.545 41.011l-11.718-42.97 11.07-39.053h-2.538l-11.016 39.284 11.826 42.739h2.376zm-14.31 0V16.46h-2.16v82.023h2.16zm-2.268-42.74L437.48 16.462h-2.538l11.556 39.053-12.204 42.97h2.376l12.312-42.74zm31.889 42.74v-4.147h-10.26v-34.79h8.856v-4.148h-8.856v-34.79h10.26V16.46h-12.42v82.023h12.42zm28.715-22.234c0-6.22-.27-12.326-2.484-17.05-.81-1.612-1.782-2.764-2.862-3.225.81-.46 1.728-1.613 2.538-3.34 2.052-4.378 2.376-9.447 2.376-15.322 0-8.64-.486-12.557-2.052-16.244-1.458-3.456-3.186-4.608-6.156-4.608h-5.94v82.023h5.886c3.024 0 4.86-1.267 6.372-4.608 1.566-3.456 2.322-7.258 2.322-17.626zm-2.16 0c0 14.4-2.322 18.087-6.156 18.087h-4.104V58.164h4.104c3.834 0 6.156 5.069 6.156 18.086zm-.432-38.937c0 11.98-2.16 16.704-5.724 16.704h-4.104V20.609h4.104c3.564 0 5.724 3.456 5.724 16.704zm23.138 61.171V16.46h-2.16l-11.016 68.89V16.46h-2.16v82.023h2.16l11.016-68.89v68.89h2.16zm23.422 0l-12.744-42.97 11.826-39.053h-2.538l-11.556 39.284 12.366 42.739h2.646zm-15.12 0V16.46h-2.16v82.023h2.16z" fill="#000"/><path d="M572.038 98.484V16.46h-12.42v40.436c0 35.942-2.916 37.44-5.832 37.44h-.378v4.147h.594c3.996 0 7.668-2.88 7.668-40.09V20.61h8.208v77.875h2.16zm21.473 0V16.46h-2.16l-11.016 68.89V16.46h-2.16v82.023h2.16l11.016-68.89v68.89h2.16zm23.421 0l-12.744-42.97 11.826-39.053h-2.538L601.92 55.745l12.366 42.739h2.646zm-15.12 0V16.46h-2.16v82.023h2.16z" fill="#000"/><path d="M635.026 98.484l-8.1-82.023h-1.944l-8.262 82.023h2.376l2.268-24.653h8.964l2.322 24.653h2.376zm-5.076-28.8h-8.154l4.05-43.776 4.104 43.776zm19.063-49.075V16.46h-15.012v4.148h6.426v77.875h2.16V20.609h6.426zm18.807 77.875V16.46h-2.16l-11.016 68.89V16.46h-2.16v82.023h2.16l11.016-68.89v68.89h2.16zm17.492 0V16.46h-2.16v82.023h2.16zm18.284-77.875V16.46h-12.15v82.023h2.16V20.609h9.99zm18.318 17.971c0-19.93-3.996-22.119-7.776-22.119h-6.804v82.023h2.16V60.698h4.644c3.672 0 7.776-2.419 7.776-22.118zm-2.16 0c0 15.782-2.646 17.971-5.778 17.971h-4.482V20.609h4.482c3.132 0 5.778 2.188 5.778 17.97zm22.01 18.893c0-28.34-.432-32.948-2.7-37.901-1.188-2.65-3.024-4.032-5.13-4.032s-3.942 1.382-5.13 4.032c-2.268 4.953-2.7 9.561-2.7 37.9 0 28.34.432 32.948 2.7 37.901 1.188 2.65 3.024 4.032 5.13 4.032s3.942-1.382 5.13-4.032c2.268-4.953 2.7-9.561 2.7-37.9zm-2.16 0c0 27.302-.324 30.873-2.052 34.905-.81 1.843-2.052 2.88-3.618 2.88-1.566 0-2.808-1.037-3.618-2.88-1.728-4.032-2.052-7.603-2.052-34.905 0-27.303.324-30.874 2.052-34.906.81-1.843 2.052-2.88 3.618-2.88 1.566 0 2.808 1.037 3.618 2.88 1.728 4.032 2.052 7.603 2.052 34.906zm22.154 18.777c0-6.22-.27-12.326-2.484-17.05-.81-1.612-1.782-2.764-2.862-3.225.81-.46 1.728-1.613 2.538-3.34 2.052-4.378 2.376-9.447 2.376-15.322 0-8.64-.486-12.557-2.052-16.244-1.458-3.456-3.186-4.608-6.156-4.608h-5.94v82.023h5.886c3.024 0 4.86-1.267 6.372-4.608 1.566-3.456 2.322-7.258 2.322-17.626zm-2.16 0c0 14.4-2.322 18.087-6.156 18.087h-4.104V58.164h4.104c3.834 0 6.156 5.069 6.156 18.086zm-.432-38.937c0 11.98-2.16 16.704-5.724 16.704h-4.104V20.609h4.104c3.564 0 5.724 3.456 5.724 16.704zm21.369-20.852h-2.376l-6.426 48.96-6.588-48.96h-2.376l7.83 55.757-1.836 13.479c-1.026 7.372-2.268 8.64-5.076 8.64v4.147c3.456 0 5.67-1.037 7.02-10.944l9.828-71.079zm25.061 61.056c0-9.792-.648-12.902-1.836-16.012a12.912 12.912 0 00-2.484-4.148c1.026-1.152 1.836-2.65 2.43-4.262 1.08-3.226 1.674-6.106 1.674-15.552 0-7.027-.054-13.133-2.268-17.971-1.188-2.65-3.023-4.032-5.13-4.032-2.268 0-3.888 1.613-5.076 4.147-1.565 3.456-2.214 8.64-2.214 14.515h2.16c0-4.493.432-9.1 1.728-11.865.756-1.613 1.89-2.65 3.402-2.65 1.566 0 2.808 1.037 3.618 2.88 1.62 3.802 1.62 8.064 1.62 14.976 0 9.216-.54 12.096-1.728 14.86-.864 2.074-1.998 2.996-3.348 2.996h-3.24v4.147h3.24c1.35 0 2.43.807 3.402 2.995 1.296 2.996 1.89 5.99 1.89 14.976 0 6.797-.324 11.29-1.782 14.746-.81 1.958-2.106 2.995-3.672 2.995-1.512 0-2.646-1.037-3.402-2.65-1.296-2.764-1.728-7.372-1.728-11.865h-2.16c0 6.22.756 11.866 2.538 15.206 1.134 2.19 2.7 3.456 4.752 3.456 2.107 0 3.942-1.382 5.13-4.032 2.107-4.838 2.484-9.676 2.484-17.856zm20.083 20.967l-8.1-82.023h-1.944l-8.262 82.023h2.376l2.268-24.653h8.964l2.322 24.653h2.376zm-5.076-28.8h-8.154l4.05-43.776 4.104 43.776z" fill="#000"/><path d="M844.225 98.484V16.46h-12.42v40.436c0 35.942-2.916 37.44-5.832 37.44h-.378v4.147h.594c3.996 0 7.668-2.88 7.668-40.09V20.61h8.208v77.875h2.16zm18.557 0v-4.147h-10.26v-34.79h8.856v-4.148h-8.856v-34.79h10.26V16.46h-12.42v82.023h12.42zm32.97 0l-11.718-42.97 11.07-39.053h-2.538L881.55 55.745l11.826 42.739h2.376zm-14.31 0V16.46h-2.16v82.023h2.16zm-2.268-42.74l-11.502-39.283h-2.538l11.556 39.053-12.204 42.97h2.376l12.312-42.74zm34.05 42.74V16.46h-2.16v38.247h-10.26V16.46h-2.16v82.023h2.16V58.855h10.26v39.629h2.16zm8.319 0V16.46h-2.16v82.023h2.16zm20.498-17.741h-2.16c0 4.493-.432 9.1-1.728 11.866-.756 1.612-1.89 2.65-3.402 2.65-1.566 0-2.808-1.038-3.618-2.88-1.728-4.033-2.052-7.604-2.052-34.906 0-27.303.324-30.874 2.052-34.906.81-1.843 2.052-2.88 3.618-2.88 1.512 0 2.646 1.037 3.402 2.65 1.296 2.764 1.728 7.372 1.728 11.865h2.16c0-5.875-.648-11.174-2.214-14.63-1.188-2.535-2.808-4.032-5.076-4.032-2.106 0-3.942 1.382-5.13 4.032-2.268 4.953-2.7 9.561-2.7 37.9 0 28.34.432 32.948 2.7 37.901 1.188 2.65 3.024 4.032 5.13 4.032 2.052 0 3.618-1.267 4.752-3.456 1.782-3.34 2.538-8.985 2.538-15.206zm16.42-60.134V16.46h-15.012v4.148h6.426v77.875h2.16V20.609h6.426zm18.05 55.756c0-19.93-3.996-22.118-7.776-22.118h-4.644V16.461h-2.16v82.023h6.804c3.672 0 7.776-2.42 7.776-22.119zm-2.16 0c0 15.783-2.646 17.972-5.778 17.972h-4.482V58.394h4.482c3.132 0 5.778 2.189 5.778 17.971zm9.807 22.119v-6.682h-3.132v6.682h3.132zm23.192 13.017V94.337h-2.7V16.46h-12.471v37.095c0 15.782-1.08 29.606-3.078 40.78h-2.322V111.5h2.16V98.484h16.251V111.5h2.16zm-4.86-17.164h-11.121c2.052-11.75 2.916-25.344 2.916-40.55V20.608h8.205v73.728zm23.38-36.864c0-28.34-.43-32.948-2.7-37.901-1.19-2.65-3.02-4.032-5.13-4.032s-3.94 1.382-5.13 4.032c-2.27 4.953-2.7 9.561-2.7 37.9 0 28.34.43 32.948 2.7 37.901 1.19 2.65 3.02 4.032 5.13 4.032s3.94-1.382 5.13-4.032c2.27-4.953 2.7-9.561 2.7-37.9zm-2.16 0c0 27.302-.32 30.873-2.05 34.905-.81 1.843-2.05 2.88-3.62 2.88-1.57 0-2.81-1.037-3.62-2.88-1.73-4.032-2.05-7.603-2.05-34.905 0-27.303.32-30.874 2.05-34.906.81-1.843 2.05-2.88 3.62-2.88 1.57 0 2.81 1.037 3.62 2.88 1.73 4.032 2.05 7.603 2.05 34.906zm18.83-36.864V16.46h-15.01v4.148h6.42v77.875h2.16V20.609h6.43zm18.05 17.971c0-19.93-4-22.119-7.78-22.119h-6.8v82.023h2.16V60.698h4.64c3.68 0 7.78-2.419 7.78-22.118zm-2.16 0c0 15.782-2.65 17.971-5.78 17.971h-4.48V20.609h4.48c3.13 0 5.78 2.188 5.78 17.97zm22.18 59.904V16.46h-2.16l-11.02 68.89V16.46h-2.16v82.023h2.16l11.02-68.89v68.89h2.16zm27.63 0V16.46h-2.37l-8.37 50.112-8.37-50.112h-2.38v82.023h2.16V28.788l7.56 45.158h1.95l7.66-46.771v71.309h2.16zm20.25-82.023h-2.37l-6.43 48.96-6.59-48.96h-2.37l7.83 55.757-1.84 13.479c-1.03 7.372-2.27 8.64-5.08 8.64v4.147c3.46 0 5.67-1.037 7.02-10.944l9.83-71.079zM1144.42.333h-2.05c-.27 4.954-1.46 7.604-3.73 7.604s-3.46-2.65-3.73-7.604h-2.05c.38 7.373 2 11.29 5.78 11.29 3.78 0 5.4-3.917 5.78-11.29zm1.89 98.15V16.462h-2.16l-11.02 68.89v-68.89h-2.16v82.023h2.16l11.02-68.89v68.89h2.16zm18.45-77.874V16.46h-15.01v4.148h6.43v77.875h2.16V20.609h6.42zm15.89 77.875v-4.147h-10.26v-34.79h8.86v-4.148h-8.86v-34.79h10.26V16.46h-12.42v82.023h12.42zm19.31-17.741h-2.16c0 4.493-.43 9.1-1.73 11.866-.75 1.612-1.89 2.65-3.4 2.65-1.57 0-2.81-1.038-3.62-2.88-1.73-4.033-2.05-7.604-2.05-34.906 0-27.303.32-30.874 2.05-34.906.81-1.843 2.05-2.88 3.62-2.88 1.51 0 2.65 1.037 3.4 2.65 1.3 2.764 1.73 7.372 1.73 11.865h2.16c0-5.875-.65-11.174-2.21-14.63-1.19-2.535-2.81-4.032-5.08-4.032-2.11 0-3.94 1.382-5.13 4.032-2.27 4.953-2.7 9.561-2.7 37.9 0 28.34.43 32.948 2.7 37.901 1.19 2.65 3.02 4.032 5.13 4.032 2.05 0 3.62-1.267 4.75-3.456 1.78-3.34 2.54-8.985 2.54-15.206zm5.56 17.741l5.78-37.901h5.51v37.9h2.16V16.462h-6.81c-3.78 0-7.77 2.19-7.77 22.119 0 13.593 1.83 19.353 4.86 21.312l-6.11 38.592h2.38zm1.03-59.904c0-11.981 1.4-17.971 5.45-17.971h4.81V56.55H1212c-4.05 0-5.45-5.99-5.45-17.971zm42.34 59.904V16.46h-14.58v82.023h2.16V20.609h10.26v77.875h2.16zm20.74-59.904c0-19.93-3.99-22.119-7.77-22.119h-6.81v82.023h2.16V60.698h4.65c3.67 0 7.77-2.419 7.77-22.118zm-2.16 0c0 15.782-2.64 17.971-5.77 17.971h-4.49V20.609h4.49c3.13 0 5.77 2.188 5.77 17.97zm19.06 59.904l-8.1-82.023h-1.95l-8.26 82.023h2.38l2.26-24.653h8.97l2.32 24.653h2.38zm-5.08-28.8h-8.15l4.05-43.776 4.1 43.776zm22.12 6.566c0-6.22-.27-12.326-2.48-17.05-.81-1.612-1.78-2.764-2.86-3.225.81-.46 1.72-1.613 2.53-3.34 2.06-4.378 2.38-9.447 2.38-15.322 0-8.64-.49-12.557-2.05-16.244-1.46-3.456-3.19-4.608-6.16-4.608h-5.94v82.023h5.89c3.02 0 4.86-1.267 6.37-4.608 1.57-3.456 2.32-7.258 2.32-17.626zm-2.16 0c0 14.4-2.32 18.087-6.15 18.087h-4.11V58.164h4.11c3.83 0 6.15 5.069 6.15 18.086zm-.43-38.937c0 11.98-2.16 16.704-5.72 16.704h-4.11V20.609h4.11c3.56 0 5.72 3.456 5.72 16.704zm23.14 61.171V16.46h-2.16l-11.02 68.89V16.46h-2.16v82.023h2.16l11.02-68.89v68.89h2.16zm21.69 0V16.46h-12.42v40.436c0 35.942-2.91 37.44-5.83 37.44h-.38v4.147h.6c3.99 0 7.66-2.88 7.66-40.09V20.61h8.21v77.875h2.16zm20.4 7.833c-1.02-2.188-2.1-4.262-2.75-7.142-.59-2.534-.81-5.76-.81-9.446V25.217c0-3.687.22-6.912.81-9.447.65-2.88 1.73-4.953 2.75-7.142l-1.4-2.995c-1.35 2.88-2.43 5.184-3.24 8.524-.81 3.456-.97 6.682-.97 10.368V90.42c0 3.686.16 6.912.97 10.368.7 2.765 1.89 5.645 3.24 8.525l1.4-2.996zm19.02-7.833V16.46h-14.58v82.023h2.16V20.609h10.26v77.875h2.16zm20.74-59.904c0-19.93-4-22.119-7.78-22.119h-6.8v82.023h2.16V60.698h4.64c3.67 0 7.78-2.419 7.78-22.118zm-2.16 0c0 15.782-2.65 17.971-5.78 17.971h-4.48V20.609h4.48c3.13 0 5.78 2.188 5.78 17.97zm22.17 59.904V16.46h-2.16l-11.01 68.89V16.46h-2.16v82.023h2.16l11.01-68.89v68.89h2.16zm20.73 0V16.46h-2.16v38.247h-10.26V16.46h-2.16v82.023h2.16V58.855h10.26v39.629h2.16zm23.44 16.128V94.337h-2.7V16.46h-2.16v77.876h-10.26V16.46h-2.17v82.023h15.13v16.128h2.16zm19.21-16.128V16.46h-2.16l-11.01 68.89V16.46h-2.16v82.023h2.16l11.01-68.89v68.89h2.16zm20.72 0V16.46h-14.58v82.023h2.16V20.609h10.26v77.875h2.16zm8.32 0V16.46h-2.16v82.023h2.16zm20.72-22.234c0-6.22-.27-12.326-2.49-17.05-.81-1.612-1.78-2.764-2.86-3.225.81-.46 1.73-1.613 2.54-3.34 2.05-4.378 2.38-9.447 2.38-15.322 0-8.64-.49-12.557-2.06-16.244-1.45-3.456-3.18-4.608-6.15-4.608h-5.94v82.023h5.88c3.03 0 4.86-1.267 6.38-4.608 1.56-3.456 2.32-7.258 2.32-17.626zm-2.16 0c0 14.4-2.32 18.087-6.16 18.087h-4.1V58.164h4.1c3.84 0 6.16 5.069 6.16 18.086zm-.43-38.937c0 11.98-2.16 16.704-5.73 16.704h-4.1V20.609h4.1c3.57 0 5.73 3.456 5.73 16.704zm11.69 53.107V24.525c0-3.686-.17-6.912-.98-10.368-.81-3.34-1.89-5.644-3.24-8.524l-1.4 2.995c1.03 2.189 2.11 4.262 2.75 7.142.6 2.535.81 5.76.81 9.447v64.512c0 3.686-.21 6.912-.81 9.446-.64 2.88-1.72 4.954-2.75 7.142l1.4 2.996c1.35-2.88 2.54-5.76 3.24-8.525.81-3.456.98-6.682.98-10.368zm29.38-14.17c0-6.22-.27-12.326-2.48-17.05-.81-1.612-1.78-2.764-2.86-3.225.81-.46 1.73-1.613 2.54-3.34 2.05-4.378 2.37-9.447 2.37-15.322 0-8.64-.48-12.557-2.05-16.244-1.46-3.456-3.19-4.608-6.16-4.608h-5.94v82.023h5.89c3.03 0 4.86-1.267 6.37-4.608 1.57-3.456 2.32-7.258 2.32-17.626zm-2.16 0c0 14.4-2.32 18.087-6.15 18.087h-4.11V58.164h4.11c3.83 0 6.15 5.069 6.15 18.086zm-.43-38.937c0 11.98-2.16 16.704-5.72 16.704h-4.11V20.609h4.11c3.56 0 5.72 3.456 5.72 16.704zm9.97 61.171V16.46h-2.16v82.023h2.16zm23.63 13.017V94.337h-2.7V16.46h-12.48v37.095c0 15.782-1.08 29.606-3.08 40.78h-2.32V111.5h2.16V98.484h16.26V111.5h2.16zm-4.86-17.164h-11.13c2.05-11.75 2.92-25.344 2.92-40.55V20.608h8.21v73.728zm23.31 4.147V16.46h-14.58v82.023h2.16V20.609h10.26v77.875h2.16zm21.06-41.011c0-28.34-.43-32.948-2.7-37.901-1.18-2.65-3.02-4.032-5.13-4.032-2.1 0-3.94 1.382-5.13 4.032-2.26 4.953-2.7 9.561-2.7 37.9 0 28.34.44 32.948 2.7 37.901 1.19 2.65 3.03 4.032 5.13 4.032 2.11 0 3.95-1.382 5.13-4.032 2.27-4.953 2.7-9.561 2.7-37.9zm-2.16 0c0 27.302-.32 30.873-2.05 34.905-.81 1.843-2.05 2.88-3.62 2.88-1.56 0-2.8-1.037-3.61-2.88-1.73-4.032-2.06-7.603-2.06-34.905 0-27.303.33-30.874 2.06-34.906.81-1.843 2.05-2.88 3.61-2.88 1.57 0 2.81 1.037 3.62 2.88 1.73 4.032 2.05 7.603 2.05 34.906zm22.16 18.777c0-6.22-.27-12.326-2.49-17.05-.81-1.612-1.78-2.764-2.86-3.225.81-.46 1.73-1.613 2.54-3.34 2.05-4.378 2.38-9.447 2.38-15.322 0-8.64-.49-12.557-2.06-16.244-1.45-3.456-3.18-4.608-6.15-4.608h-5.94v82.023h5.88c3.03 0 4.86-1.267 6.38-4.608 1.56-3.456 2.32-7.258 2.32-17.626zm-2.16 0c0 14.4-2.32 18.087-6.16 18.087h-4.1V58.164h4.1c3.84 0 6.16 5.069 6.16 18.086zm-.43-38.937c0 11.98-2.16 16.704-5.73 16.704h-4.1V20.609h4.1c3.57 0 5.73 3.456 5.73 16.704zm9.96 61.171V16.46h-2.16v82.023h2.16zm23.63 13.017V94.337h-2.7V16.46h-12.48v37.095c0 15.782-1.08 29.606-3.07 40.78h-2.33V111.5h2.16V98.484h16.26V111.5h2.16zm-4.86-17.164h-11.13c2.06-11.75 2.92-25.344 2.92-40.55V20.608h8.21v73.728zm23.37 4.147l-8.1-82.023h-1.95l-8.26 82.023h2.38l2.27-24.653h8.96l2.32 24.653h2.38zm-5.08-28.8h-8.15l4.05-43.776 4.1 43.776z" fill="#000"/><path d="M1736.17 98.484V16.46h-12.42v40.436c0 35.942-2.91 37.44-5.83 37.44h-.38v4.147h.6c3.99 0 7.67-2.88 7.67-40.09V20.61h8.2v77.875h2.16zm20.72-22.119c0-19.93-3.99-22.118-7.77-22.118h-4.65V16.461h-2.16v82.023h6.81c3.67 0 7.77-2.42 7.77-22.119zm-2.16 0c0 15.783-2.64 17.972-5.78 17.972h-4.48V58.394h4.48c3.14 0 5.78 2.189 5.78 17.971zm21.69 22.119V16.46h-2.16v38.247H1764V16.46h-2.16v82.023h2.16V58.855h10.26v39.629h2.16zm21.06-41.011c0-28.34-.43-32.948-2.7-37.901-1.19-2.65-3.02-4.032-5.13-4.032-2.1 0-3.94 1.382-5.13 4.032-2.27 4.953-2.7 9.561-2.7 37.9 0 28.34.43 32.948 2.7 37.901 1.19 2.65 3.03 4.032 5.13 4.032 2.11 0 3.94-1.382 5.13-4.032 2.27-4.953 2.7-9.561 2.7-37.9zm-2.16 0c0 27.302-.32 30.873-2.05 34.905-.81 1.843-2.05 2.88-3.62 2.88-1.56 0-2.81-1.037-3.62-2.88-1.72-4.032-2.05-7.603-2.05-34.905 0-27.303.33-30.874 2.05-34.906.81-1.843 2.06-2.88 3.62-2.88 1.57 0 2.81 1.037 3.62 2.88 1.73 4.032 2.05 7.603 2.05 34.906zm9.73 41.011V16.46h-2.16v82.023h2.16zm3.62-90.893v-5.76h-2.7v5.76h2.7zm-6.69 0v-5.76h-2.7v5.76h2.7zm30.55 13.018V16.46h-12.15v82.023h2.16V20.609h9.99zm18.32 17.971c0-19.93-4-22.119-7.78-22.119h-6.8v82.023h2.16V60.698h4.64c3.67 0 7.78-2.419 7.78-22.118zm-2.16 0c0 15.782-2.65 17.971-5.78 17.971h-4.48V20.609h4.48c3.13 0 5.78 2.188 5.78 17.97zm22.18 59.904V16.46h-2.16l-11.02 68.89V16.46h-2.16v82.023h2.16l11.02-68.89v68.89h2.16z" fill="#000"/></svg>